<svg width="20" height="20" viewBox="0 0 20 20" fill="none" xmlns="http://www.w3.org/2000/svg">
<path d="M9.99999 18.3333C14.6024 18.3333 18.3333 14.6024 18.3333 10C18.3333 5.39763 14.6024 1.66667 9.99999 1.66667C5.39762 1.66667 1.66666 5.39763 1.66666 10C1.66666 14.6024 5.39762 18.3333 9.99999 18.3333Z" stroke="#111111" stroke-width="1.25"/>
<path d="M6.66666 10C6.66666 15 9.99999 18.3333 9.99999 18.3333C9.99999 18.3333 13.3333 15 13.3333 10C13.3333 5 9.99999 1.66667 9.99999 1.66667C9.99999 1.66667 6.66666 5 6.66666 10Z" stroke="#111111" stroke-width="1.25" stroke-linejoin="round"/>
<path d="M17.5 12.5H2.5" stroke="#111111" stroke-width="1.25" stroke-linecap="round" stroke-linejoin="round"/>
<path d="M17.5 7.5H2.5" stroke="#111111" stroke-width="1.25" stroke-linecap="round" stroke-linejoin="round"/>
</svg>
