<svg width="18" height="19" viewBox="0 0 18 19" fill="none" xmlns="http://www.w3.org/2000/svg">
<g clip-path="url(#clip0_128_1002)">
<path d="M9.92521 0.572885C10.5819 0.570365 11.2387 0.576965 11.8952 0.592684L12.0698 0.598984C12.2714 0.606184 12.4703 0.615183 12.7106 0.625983C13.6681 0.670981 14.3215 0.822176 14.8948 1.04447C15.4887 1.27306 15.9891 1.58265 16.4895 2.08303C16.947 2.53266 17.3011 3.07655 17.5271 3.67688C17.7494 4.25016 17.9006 4.90444 17.9456 5.862C17.9564 6.1014 17.9654 6.30119 17.9726 6.50278L17.978 6.67738C17.994 7.33363 18.0009 7.99007 17.9987 8.64651L17.9996 9.31789V10.4968C18.0018 11.1536 17.9949 11.8103 17.9789 12.4669L17.9735 12.6415C17.9663 12.8431 17.9573 13.042 17.9465 13.2823C17.9015 14.2398 17.7485 14.8932 17.5271 15.4665C17.3018 16.0674 16.9476 16.6118 16.4895 17.0612C16.0395 17.5187 15.4953 17.8728 14.8948 18.0989C14.3215 18.3212 13.6681 18.4724 12.7106 18.5174C12.4703 18.5282 12.2714 18.5372 12.0698 18.5444L11.8952 18.5498C11.2387 18.5658 10.5819 18.5727 9.92521 18.5705L9.25384 18.5714H8.0758C7.41907 18.5736 6.76235 18.5667 6.10581 18.5507L5.93122 18.5453C5.71758 18.5375 5.50398 18.5285 5.29045 18.5183C4.3329 18.4733 3.67953 18.3203 3.10536 18.0989C2.50481 17.8733 1.96083 17.5191 1.51154 17.0612C1.05351 16.6115 0.699085 16.0673 0.472995 15.4665C0.250706 14.8932 0.0995141 14.2398 0.0545165 13.2823C0.0444936 13.0687 0.035494 12.8551 0.0275179 12.6415L0.0230182 12.4669C0.00642628 11.8103 -0.00107414 11.1536 0.000519275 10.4968V8.64651C-0.00199247 7.99007 0.0046079 7.33363 0.0203183 6.67738L0.026618 6.50278C0.0338176 6.30119 0.0428171 6.1014 0.0536166 5.862C0.0986143 4.90354 0.249806 4.25106 0.472095 3.67688C0.698319 3.07626 1.05343 2.53252 1.51244 2.08393C1.96142 1.62563 2.50506 1.27088 3.10536 1.04447C3.67953 0.822176 4.332 0.670981 5.29045 0.625983L5.93122 0.598984L6.10581 0.594484C6.76204 0.5779 7.41847 0.5704 8.07491 0.571985L9.92521 0.572885ZM9.00006 5.07273C8.40384 5.0643 7.8119 5.17445 7.25863 5.39678C6.70535 5.61911 6.20178 5.94919 5.77718 6.36784C5.35258 6.78648 5.01542 7.28534 4.78529 7.83542C4.55516 8.38551 4.43665 8.97584 4.43665 9.57213C4.43665 10.1684 4.55516 10.7587 4.78529 11.3088C5.01542 11.8589 5.35258 12.3578 5.77718 12.7764C6.20178 13.1951 6.70535 13.5251 7.25863 13.7475C7.8119 13.9698 8.40384 14.08 9.00006 14.0715C10.1935 14.0715 11.338 13.5974 12.1819 12.7536C13.0257 11.9097 13.4998 10.7651 13.4998 9.57168C13.4998 8.37824 13.0257 7.23369 12.1819 6.38981C11.338 5.54592 10.1935 5.07273 9.00006 5.07273ZM9.00006 6.87267C9.3587 6.86606 9.71506 6.93099 10.0483 7.06365C10.3816 7.19631 10.6851 7.39406 10.9411 7.64533C11.197 7.89661 11.4004 8.19637 11.5392 8.52712C11.6781 8.85787 11.7496 9.21297 11.7497 9.57167C11.7497 9.93038 11.6783 10.2855 11.5396 10.6163C11.4009 10.9471 11.1976 11.2469 10.9417 11.4983C10.6858 11.7496 10.3824 11.9475 10.0492 12.0803C9.71594 12.213 9.3596 12.2781 9.00096 12.2716C8.28491 12.2716 7.59819 11.9871 7.09187 11.4808C6.58555 10.9745 6.3011 10.2877 6.3011 9.57168C6.3011 8.85562 6.58555 8.16889 7.09187 7.66255C7.59819 7.15622 8.28491 6.87177 9.00096 6.87177L9.00006 6.87267ZM13.7248 3.72278C13.4345 3.7344 13.1599 3.85791 12.9586 4.06744C12.7573 4.27697 12.6449 4.55627 12.6449 4.84684C12.6449 5.13741 12.7573 5.41671 12.9586 5.62624C13.1599 5.83577 13.4345 5.95928 13.7248 5.9709C14.0232 5.9709 14.3093 5.85238 14.5203 5.64141C14.7312 5.43044 14.8498 5.1443 14.8498 4.84594C14.8498 4.54758 14.7312 4.26144 14.5203 4.05047C14.3093 3.8395 14.0232 3.72098 13.7248 3.72098V3.72278Z" fill="#676767"/>
</g>
<defs>
<clipPath id="clip0_128_1002">
<rect width="18" height="19" fill="white"/>
</clipPath>
</defs>
</svg>
