<svg width="24" height="24" viewBox="0 0 24 24" fill="none" xmlns="http://www.w3.org/2000/svg">
<path d="M2.25362 9.21772H6.53986V22.1164H2.25362V9.21772ZM4.42543 3C2.95843 3 2 3.9631 2 5.22719C2 6.46529 2.93038 7.45638 4.36933 7.45638H4.39667C5.89171 7.45638 6.82276 6.46524 6.82276 5.22719C6.79471 3.9631 5.89176 3 4.42543 3ZM17.0638 8.91471C14.7886 8.91471 13.7693 10.1661 13.2007 11.0438V9.21772H8.91314C8.9699 10.4278 8.91314 22.1164 8.91314 22.1164H13.2007V14.9129C13.2007 14.527 13.2287 14.1427 13.3415 13.8663C13.652 13.0961 14.3574 12.2985 15.5407 12.2985C17.0931 12.2985 17.7131 13.4819 17.7131 15.2151V22.1163H22V14.72C22 10.7581 19.8856 8.91471 17.0638 8.91471Z" fill="#676767"/>
</svg>
